PathFileType	4	(X/Y/Z)	C:/Users/opensim2020/Desktop/walking_exp_matlab/subject06_walking16_straight_04.trc	
DataRate	CameraRate	NumFrames	NumMarkers	Units	OrigDataRate	OrigDataStartFrame	OrigNumFrames	
100.00	100.00	5	51	mm	100.00	4141	352	
Frame#	Time	LFHD			RFHD			LBHD			RBHD			C7			T10			CLAV			STRN			RBAK			LSHO			LUPA			LELB			LFRM			LWRA			LWRB			LFIN			RSHO			RUPA			RELB			RFRM			RWRA			RWRB			RFIN			LASI			RASI			LPSI			RPSI			LTHI			LKNE			LTIB			LANK			LHEE			LTOE			RTHI			RKNE			RTIB			RANK			RHEE			RTOE			*39			*40			*41			*42			*43			*44			*45			*46			*47			*48			*49			*50			
		X1	Y1	Z1	X2	Y2	Z2	X3	Y3	Z3	X4	Y4	Z4	X5	Y5	Z5	X6	Y6	Z6	X7	Y7	Z7	X8	Y8	Z8	X9	Y9	Z9	X10	Y10	Z10	X11	Y11	Z11	X12	Y12	Z12	X13	Y13	Z13	X14	Y14	Z14	X15	Y15	Z15	X16	Y16	Z16	X17	Y17	Z17	X18	Y18	Z18	X19	Y19	Z19	X20	Y20	Z20	X21	Y21	Z21	X22	Y22	Z22	X23	Y23	Z23	X24	Y24	Z24	X25	Y25	Z25	X26	Y26	Z26	X27	Y27	Z27	X28	Y28	Z28	X29	Y29	Z29	X30	Y30	Z30	X31	Y31	Z31	X32	Y32	Z32	X33	Y33	Z33	X34	Y34	Z34	X35	Y35	Z35	X36	Y36	Z36	X37	Y37	Z37	X38	Y38	Z38	X39	Y39	Z39	X40	Y40	Z40	X41	Y41	Z41	X42	Y42	Z42	X43	Y43	Z43	X44	Y44	Z44	X45	Y45	Z45	X46	Y46	Z46	X47	Y47	Z47	X48	Y48	Z48	X49	Y49	Z49	X50	Y50	Z50	X51	Y51	Z51	

309	3.080	1513.04541	-667.54865	1654.94104	1383.07068	-649.71985	1636.29932	1535.94434	-536.12085	1600.58911	1408.05786	-519.73444	1587.02148	1485.69519	-527.37604	1441.18054	1477.16553	-491.94226	1111.76440	1475.44568	-636.02887	1362.21448	1486.62915	-674.52948	1186.55908	1415.74744	-448.20544	1268.13025	1639.51172	-600.87292	1399.74097	1716.12061	-643.04889	1204.67798	1730.36609	-675.64624	1096.00720	1730.08423	-780.59119	987.96466	1664.15247	-887.98395	941.13519	1703.11792	-851.63123	894.96259	1687.34839	-933.60974	860.18561	1318.24329	-578.22278	1389.20923	1239.49060	-526.63367	1190.05396	1229.11536	-531.11963	1067.98181	1210.92847	-536.36035	947.83167	1233.96265	-589.35010	804.63947	1201.26343	-530.40753	809.99005	1195.04907	-560.96490	731.05823	1590.39233	-663.67303	948.74548	1368.22095	-679.89331	960.59631	1549.29785	-508.36996	977.70074	1382.02051	-527.79138	980.51361	1630.57288	-557.78833	640.22247	1606.10828	-527.25928	477.82321	1589.88452	-420.30374	242.27812	1540.58459	-367.12421	78.34267	1495.08875	-323.65787	70.84881	1538.71423	-507.03809	40.69147	1302.30066	-691.26855	633.47864	1335.31287	-732.87421	518.38409	1327.30774	-764.20654	256.07776	1367.25366	-811.88184	74.45567	1414.57385	-783.68488	39.94107	1371.29712	-969.53223	77.17236	1466.21204	-559.73743	1689.29834																																	 
310	3.090	1511.28674	-674.48499	1654.52222	1381.32092	-656.75995	1635.62598	1534.19592	-543.37457	1599.91174	1406.41724	-526.75714	1586.11365	1484.34119	-534.67303	1440.37573	1475.71436	-500.22827	1110.78699	1474.09412	-643.75592	1361.63403	1485.70374	-682.73352	1186.08887	1414.59216	-456.00949	1266.77368	1638.01599	-608.48083	1399.20898	1714.60889	-650.89581	1204.15295	1728.76843	-682.60889	1095.19690	1728.43787	-786.38129	985.93250	1662.17383	-892.89673	937.54559	1701.72827	-856.31543	892.08813	1685.32666	-937.65594	856.03253	1316.76990	-585.60498	1388.17920	1238.44580	-533.79797	1188.99780	1227.96558	-538.34454	1066.90942	1209.88538	-543.57422	946.72778	1232.80212	-596.78644	803.52594	1200.45044	-537.61975	808.85974	1194.06299	-568.26514	730.03564	1590.14795	-671.01160	947.82220	1368.02148	-688.88879	959.74097	1547.59888	-516.06488	977.11450	1380.33936	-536.77960	979.97473	1630.04858	-563.25616	639.83002	1605.69617	-531.75641	477.53940	1589.73584	-422.48251	242.98224	1540.75635	-367.62405	79.50923	1495.42212	-324.23093	72.35751	1538.72266	-507.17694	40.64038	1301.81958	-699.24860	632.13275	1335.12927	-739.92084	516.82458	1327.15588	-768.58478	254.41010	1368.01257	-813.45215	72.22868	1415.29871	-784.68842	39.36667	1373.45923	-971.29810	71.53547	1464.41077	-566.57745	1688.53503																																	 
311	3.100	1509.48254	-681.44025	1654.30054	1379.57410	-663.56390	1634.98389	1532.62634	-550.26624	1599.36377	1404.87549	-533.75000	1585.30042	1482.71533	-542.06989	1439.64893	1473.97510	-508.81201	1109.94397	1472.68042	-651.50049	1361.27466	1484.72107	-690.95520	1185.71851	1413.41248	-463.87869	1265.44043	1636.56177	-616.07196	1398.78540	1713.00940	-658.65228	1203.56897	1727.25354	-689.14917	1094.40051	1726.69897	-792.02191	983.81720	1660.27173	-897.72028	933.73657	1700.37695	-860.82452	889.04474	1683.43774	-941.48297	851.63861	1315.25659	-593.27295	1387.21362	1237.30310	-541.11023	1187.93799	1226.86816	-545.73584	1065.83215	1208.86072	-550.93561	945.64838	1231.48499	-604.35388	802.49207	1199.53552	-545.08380	807.87164	1193.00977	-575.62817	729.07043	1589.84644	-678.59241	946.96997	1367.79321	-697.91412	959.01434	1545.95923	-523.85406	976.64246	1378.43640	-545.57855	979.81244	1629.36133	-568.96344	639.43512	1605.08337	-536.52618	477.29395	1589.54700	-424.82257	243.83197	1540.99487	-368.47131	80.81384	1495.77014	-324.54724	74.17845	1538.73450	-507.35303	40.63546	1301.17896	-707.32837	631.09094	1334.98901	-746.70984	515.72339	1328.11804	-773.48615	253.29459	1368.03149	-816.72150	72.15830	1415.67834	-786.17090	41.64035	1374.06714	-975.13007	64.89055	1462.57642	-573.45123	1687.93298																																	 
312	3.110	1507.67859	-688.30103	1654.62622	1377.76697	-670.51746	1634.94678	1530.59375	-557.39581	1599.06555	1403.13220	-541.00311	1584.70239	1480.96045	-549.63110	1439.45203	1472.54004	-517.44940	1109.33289	1471.30554	-659.25629	1361.23621	1483.80176	-699.01013	1185.72131	1412.07190	-471.68250	1264.48474	1635.25281	-623.39410	1398.57178	1711.36877	-666.23315	1202.92090	1725.49768	-695.98743	1093.53296	1724.73535	-797.32739	981.63629	1658.43835	-902.36346	929.69684	1699.16699	-864.96368	885.93390	1681.79956	-944.88995	847.00525	1313.63708	-601.10767	1386.51807	1236.04614	-548.80182	1187.02087	1225.60303	-553.33698	1064.91895	1207.80066	-558.54681	944.70801	1230.45020	-611.70392	801.43927	1198.73633	-552.43066	806.83069	1192.08374	-582.94818	728.12524	1589.64404	-686.37555	946.23792	1367.38477	-706.63617	958.24591	1544.50476	-531.73444	976.42841	1376.70715	-554.41730	980.15698	1628.65149	-574.90027	638.93616	1604.09338	-541.57092	477.10095	1589.27527	-427.57645	244.94717	1541.54834	-369.15320	82.47950	1496.61902	-325.22491	76.32369	1538.66321	-507.56409	40.61134	1300.10071	-715.28241	631.23169	1334.05249	-752.79169	515.64319	1326.93713	-778.47375	253.35854	1366.88403	-821.20013	72.24252	1413.99597	-789.64203	42.29612	1374.29602	-978.60321	61.05754	1460.67212	-580.14923	1687.65405																																	 
313	3.120	1505.72803	-695.16553	1655.37549	1375.87122	-677.47675	1635.39465	1529.13074	-564.45514	1599.32104	1401.39050	-548.19971	1584.61877	1479.39502	-557.27740	1439.90173	1471.70276	-525.87500	1109.18384	1469.90479	-666.91815	1361.60413	1482.86841	-706.96417	1185.92688	1410.59949	-479.59735	1264.06824	1634.06665	-630.90857	1398.56628	1709.68994	-673.61102	1202.38440	1723.64819	-702.81311	1092.83350	1723.21497	-802.75623	979.53162	1656.68542	-906.66205	925.52454	1697.95813	-868.65997	882.70660	1680.41162	-947.80695	842.25891	1311.86133	-609.13452	1386.15564	1234.73083	-556.84930	1186.37695	1224.38257	-561.42017	1064.25952	1206.71326	-566.36572	943.99615	1229.43408	-619.54236	800.82214	1197.85742	-560.02075	806.13983	1190.97339	-590.39008	727.53241	1589.05505	-694.23267	945.86945	1366.87439	-715.36658	958.08551	1543.35400	-539.98730	976.48749	1375.43848	-563.00818	981.32343	1627.69714	-581.60669	638.76501	1603.14624	-547.26971	477.17969	1588.83618	-430.74838	246.28419	1541.80200	-370.11554	84.58009	1497.02222	-325.99509	78.93625	1538.54565	-507.80231	40.59381	1299.03833	-723.03455	632.53955	1332.09277	-758.67499	516.67938	1324.83557	-784.18201	254.18307	1366.21277	-823.73871	71.44842	1412.82300	-790.69684	43.74047	1373.83167	-980.97449	58.10023	1458.71423	-586.84515	1687.79944																																	 
